<svg xmlns="http://www.w3.org/2000/svg" viewBox="0 0 200 57" width="200" height="57">
  <!-- Shopify bag icon -->
  <g transform="translate(0, 2)">
    <!-- Shopping bag shape -->
    <path d="M34.2 12.3l-1.3-.4c0-.1-.1-.2-.1-.3C31.3 6.1 27.3 3 22.8 3c-.3 0-.7 0-1 .1C20.6 1.6 19.1.8 17.4.8c-4.2 0-6.2 5.2-6.8 7.8l-3.1 1c-1 .3-1 .4-1.1 1.3L4 39.1 27.2 43l12.4-2.6L34.2 12.3zM22 5.1c2.9 0 4.3 1.8 4.8 3.7l-9.7 3c.6-2.8 2.4-6.7 4.9-6.7zM17.4 2.8c.8 0 1.4.4 1.9 1.1-2.9 1.3-5 5-5.7 8.8l-4.5 1.4c.8-3.5 2.9-11.3 8.3-11.3z" fill="#96BF48"/>
    <path d="M33 11.9l-1.3-.4c0-.1-.1-.2-.1-.3C30.1 5.7 26 2.6 21.5 2.6c-4.7 0-8.3 4.5-9.1 11.1L8 15l-3.3 28 23.2 4L39.1 44 33 11.9zM21.7 4.7c2.9 0 5.1 2 5.9 5.1l-11.8 3.6c.5-2.7 2.4-8.7 5.9-8.7z" fill="#5E8E3E"/>
  </g>
  <!-- Shopify wordmark -->
  <text x="48" y="38" font-family="Arial, sans-serif" font-size="26" font-weight="700" fill="#333333" letter-spacing="-0.3">shopify</text>
</svg>
